<?xml version="1.0" encoding="UTF-8"?>
<svg version="1.1" xmlns="http://www.w3.org/2000/svg" width="220" height="35">
<path d="M0 0 C1.28648437 -0.02835938 2.57296875 -0.05671875 3.8984375 -0.0859375 C9.35503382 0.58898741 12.36318963 2.94267472 15.9375 7 C19.73415199 12.34343614 19.18450019 17.99514365 18.625 24.375 C16.49026742 28.88165768 13.70677871 31.5491532 9.625 34.375 C3.72941412 36.34019529 -3.73239033 36.44098109 -9.7109375 34.69140625 C-14.42688832 32.20986881 -17.23035156 28.33200848 -19.125 23.4375 C-19.87492441 17.25062358 -19.35206648 12.91850311 -16.375 7.375 C-11.25518921 1.46752601 -7.77940677 0.07763879 0 0 Z M-7.375 12.375 C-8.94435594 15.51371188 -8.72701103 17.91355822 -8.375 21.375 C-6.25968773 24.07789901 -4.4851533 25.80201765 -1.4375 27.375 C1.83943888 27.375 3.89233222 26.09776882 6.625 24.375 C8.79722379 21.73055365 8.62393321 20.34512982 8.5 16.875 C7.53883374 13.03033494 6.80659919 11.67282164 3.625 9.375 C-1.17277058 7.35488607 -3.50531405 9.29684072 -7.375 12.375 Z " fill="#00FDD8" transform="translate(201.375,-0.375)"/>
<path d="M0 0 C3.63 0 7.26 0 11 0 C11 4.29 11 8.58 11 13 C14.96 13 18.92 13 23 13 C23 8.71 23 4.42 23 0 C26.3 0 29.6 0 33 0 C33 11.55 33 23.1 33 35 C29.7 35 26.4 35 23 35 C23 30.71 23 26.42 23 22 C19.04 22 15.08 22 11 22 C11 26.29 11 30.58 11 35 C7.37 35 3.74 35 0 35 C0 23.45 0 11.9 0 0 Z " fill="#00FDD8" transform="translate(113,0)"/>
<path d="M0 0 C1.37478516 0.01740234 1.37478516 0.01740234 2.77734375 0.03515625 C3.69644531 0.04417969 4.61554687 0.05320313 5.5625 0.0625 C6.27277344 0.07410156 6.98304687 0.08570313 7.71484375 0.09765625 C8.33230469 1.21140625 8.94976563 2.32515625 9.5859375 3.47265625 C10.44132889 5.01436584 11.2968039 6.55602904 12.15234375 8.09765625 C12.59884277 8.90259521 13.0453418 9.70753418 13.50537109 10.53686523 C15.78373375 14.63944389 18.07097219 18.73649179 20.3828125 22.8203125 C20.79668213 23.55185547 21.21055176 24.28339844 21.63696289 25.03710938 C22.42988386 26.43658993 23.22460219 27.83505388 24.02124023 29.23242188 C26.71484375 33.9879242 26.71484375 33.9879242 26.71484375 35.09765625 C24.75718094 35.17847719 22.79857647 35.23676403 20.83984375 35.28515625 C19.20402344 35.33736328 19.20402344 35.33736328 17.53515625 35.390625 C16.60445312 35.29394531 15.67375 35.19726562 14.71484375 35.09765625 C14.05484375 34.10765625 13.39484375 33.11765625 12.71484375 32.09765625 C10.75122511 31.52016822 10.75122511 31.52016822 8.58984375 31.41015625 C7.31109375 31.30703125 6.03234375 31.20390625 4.71484375 31.09765625 C4.71484375 28.12765625 4.71484375 25.15765625 4.71484375 22.09765625 C5.37484375 21.76765625 6.03484375 21.43765625 6.71484375 21.09765625 C5.39484375 18.78765625 4.07484375 16.47765625 2.71484375 14.09765625 C1.39484375 16.40765625 0.07484375 18.71765625 -1.28515625 21.09765625 C-0.62515625 21.42765625 0.03484375 21.75765625 0.71484375 22.09765625 C0.71484375 25.06765625 0.71484375 28.03765625 0.71484375 31.09765625 C-2.3125 31.34179688 -2.3125 31.34179688 -5.33984375 31.5859375 C-7.68034841 31.97158661 -7.68034841 31.97158661 -9.28515625 35.09765625 C-11.88671875 35.390625 -11.88671875 35.390625 -14.91015625 35.28515625 C-16.41449219 35.24455078 -16.41449219 35.24455078 -17.94921875 35.203125 C-18.72007813 35.16832031 -19.4909375 35.13351563 -20.28515625 35.09765625 C-18.90866763 30.56830225 -17.08733604 26.58659255 -14.84375 22.421875 C-14.51601089 21.8112471 -14.18827179 21.2006192 -13.8506012 20.57148743 C-13.1627961 19.29214762 -12.47273504 18.01401833 -11.78051758 16.73706055 C-10.71769069 14.77599409 -9.66200741 12.81121169 -8.60742188 10.84570312 C-2.83197226 0.12102446 -2.83197226 0.12102446 0 0 Z " fill="#00FDD8" transform="translate(20.28515625,-0.09765625)"/>
<path d="M0 0 C8.91 0 17.82 0 27 0 C27 2.97 27 5.94 27 9 C21.39 9 15.78 9 10 9 C10 10.32 10 11.64 10 13 C14.95 13 19.9 13 25 13 C25 15.64 25 18.28 25 21 C20.05 21 15.1 21 10 21 C10 22.65 10 24.3 10 26 C15.94 26 21.88 26 28 26 C28 28.97 28 31.94 28 35 C18.76 35 9.52 35 0 35 C0 23.45 0 11.9 0 0 Z " fill="#00FDD8" transform="translate(152,0)"/>
<path d="M0 0 C3.3 0 6.6 0 10 0 C10.03867187 2.31257812 10.03867187 2.31257812 10.078125 4.671875 C10.13440472 6.69794503 10.19175209 8.7239856 10.25 10.75 C10.26417969 11.76578125 10.27835938 12.7815625 10.29296875 13.828125 C10.36991535 19.682146 10.36991535 19.682146 13.046875 24.703125 C13.69140625 25.13109375 14.3359375 25.5590625 15 26 C17.49552484 25.21869929 17.49552484 25.21869929 20 24 C20.95168683 21.14493951 21.1900946 19.09062718 21.31640625 16.11328125 C21.35830078 15.17548828 21.40019531 14.23769531 21.44335938 13.27148438 C21.48267578 12.29501953 21.52199219 11.31855469 21.5625 10.3125 C21.60568359 9.32443359 21.64886719 8.33636719 21.69335938 7.31835938 C21.79941542 4.87907028 21.90020974 2.43955346 22 0 C25.3 0 28.6 0 32 0 C32.08746928 4.04152915 32.14054982 8.08281305 32.1875 12.125 C32.21263672 13.26710938 32.23777344 14.40921875 32.26367188 15.5859375 C32.32784002 22.94388446 32.02791747 27.89024692 26.6875 33.375 C21.62214387 36.4321215 14.6431304 35.73261693 9 35 C5.4511054 33.47609329 2.78132743 31.4024147 0.73242188 28.06933594 C-0.9994529 23.17621239 -0.39408464 17.74000456 -0.25 12.625 C-0.23195312 11.41199219 -0.21390625 10.19898438 -0.1953125 8.94921875 C-0.14832216 5.9653321 -0.08263372 2.98307721 0 0 Z " fill="#00FDD8" transform="translate(46,0)"/>
<path d="M0 0 C10.23 0 20.46 0 31 0 C31 2.97 31 5.94 31 9 C27.7 9 24.4 9 21 9 C21 17.58 21 26.16 21 35 C17.37 35 13.74 35 10 35 C10 26.42 10 17.84 10 9 C6.7 9 3.4 9 0 9 C0 6.03 0 3.06 0 0 Z " fill="#00FDD8" transform="translate(80,0)"/>
</svg>
