<?xml version="1.0" encoding="UTF-8"?>
<svg version="1.1" xmlns="http://www.w3.org/2000/svg" width="220" height="35">
<path d="M0 0 C4.15770952 2.17871241 6.3600445 5.30136253 8.6015625 9.3125 C9.1328125 12.96875 9.1328125 12.96875 9.1015625 16.8125 C9.111875 18.0809375 9.1221875 19.349375 9.1328125 20.65625 C8.33734571 26.13093317 5.9521042 29.17204256 1.7890625 32.6875 C-4.41585267 35.89090523 -13.22242162 35.52908073 -19.78515625 33.6171875 C-24.48051938 31.19311716 -27.27406948 27.21711737 -29.1484375 22.375 C-29.89836191 16.18812358 -29.37550398 11.85600311 -26.3984375 6.3125 C-19.50934448 -1.63645348 -10.00470439 -2.867798 0 0 Z M-16.8984375 10.375 C-18.79319412 14.08556506 -19.05998474 16.19620608 -18.3984375 20.3125 C-16.48177083 23.39583333 -16.48177083 23.39583333 -13.3984375 25.3125 C-9.43367344 25.93851538 -7.40081729 25.97196039 -4.0234375 23.75 C-1.86305499 20.50942624 -1.46656304 18.19565597 -1.3984375 14.3125 C-2.74406149 11.36494268 -3.48398294 9.76972728 -6.3984375 8.3125 C-12.14918983 7.61345398 -12.14918983 7.61345398 -16.8984375 10.375 Z " fill="#0C0932" transform="translate(211.3984375,0.6875)"/>
<path d="M0 0 C1.56613893 0.12803472 3.13127142 0.28243018 4.6875 0.5 C9.43949558 8.72408404 14.09798534 16.99666022 18.6875 25.3125 C19.18032471 26.20227539 19.67314941 27.09205078 20.1809082 28.00878906 C20.6368335 28.83733398 21.09275879 29.66587891 21.5625 30.51953125 C21.97242188 31.26307861 22.38234375 32.00662598 22.8046875 32.77270508 C23.6875 34.5 23.6875 34.5 23.6875 35.5 C19.7275 35.5 15.7675 35.5 11.6875 35.5 C11.0275 34.18 10.3675 32.86 9.6875 31.5 C7.0475 31.5 4.4075 31.5 1.6875 31.5 C1.6875 28.53 1.6875 25.56 1.6875 22.5 C2.3475 22.17 3.0075 21.84 3.6875 21.5 C3.1925 20.71625 2.6975 19.9325 2.1875 19.125 C0.6875 16.5 0.6875 16.5 0.6875 14.5 C-2.32577566 16.00663783 -2.92306618 18.53166411 -4.3125 21.5 C-3.6525 21.83 -2.9925 22.16 -2.3125 22.5 C-2.3125 25.47 -2.3125 28.44 -2.3125 31.5 C-5.33984375 31.74414062 -5.33984375 31.74414062 -8.3671875 31.98828125 C-10.70769216 32.37393036 -10.70769216 32.37393036 -12.3125 35.5 C-14.9140625 35.79296875 -14.9140625 35.79296875 -17.9375 35.6875 C-19.44183594 35.64689453 -19.44183594 35.64689453 -20.9765625 35.60546875 C-21.74742188 35.57066406 -22.51828125 35.53585938 -23.3125 35.5 C-22.74427527 31.70960677 -21.69521138 29.14877276 -19.625 25.9375 C-17.27635351 22.16730432 -15.19817704 18.3672488 -13.25 14.375 C-12.74855469 13.37726562 -12.24710938 12.37953125 -11.73046875 11.3515625 C-10.84511309 9.5710952 -9.98828497 7.77580834 -9.17578125 5.9609375 C-6.81928818 1.28102494 -5.37015686 0.03021185 0 0 Z " fill="#0B0932" transform="translate(23.3125,-0.5)"/>
<path d="M0 0 C3.63 0 7.26 0 11 0 C11 4.29 11 8.58 11 13 C14.96 13 18.92 13 23 13 C23 8.71 23 4.42 23 0 C26.3 0 29.6 0 33 0 C33 11.55 33 23.1 33 35 C29.7 35 26.4 35 23 35 C23 30.71 23 26.42 23 22 C19.04 22 15.08 22 11 22 C11 26.29 11 30.58 11 35 C7.37 35 3.74 35 0 35 C0 23.45 0 11.9 0 0 Z " fill="#0D0931" transform="translate(113,0)"/>
<path d="M0 0 C8.91 0 17.82 0 27 0 C27 2.97 27 5.94 27 9 C21.39 9 15.78 9 10 9 C10 10.32 10 11.64 10 13 C14.95 13 19.9 13 25 13 C25 15.97 25 18.94 25 22 C20.05 22 15.1 22 10 22 C10 23.32 10 24.64 10 26 C15.94 26 21.88 26 28 26 C28 28.97 28 31.94 28 35 C18.76 35 9.52 35 0 35 C0 23.45 0 11.9 0 0 Z " fill="#0D0932" transform="translate(152,0)"/>
<path d="M0 0 C3.63 0 7.26 0 11 0 C11.04898438 1.46953125 11.09796875 2.9390625 11.1484375 4.453125 C11.22347868 6.38543535 11.29902593 8.3177261 11.375 10.25 C11.4059375 11.21808594 11.436875 12.18617187 11.46875 13.18359375 C11.50742187 14.11816406 11.54609375 15.05273438 11.5859375 16.015625 C11.6173584 16.87446289 11.6487793 17.73330078 11.68115234 18.61816406 C12.01716204 21.1282028 12.74191728 22.81932328 14 25 C15.98 25 17.96 25 20 25 C21.77965702 21.91526116 22.28436571 19.56067048 22.4140625 16.015625 C22.45273438 15.08105469 22.49140625 14.14648438 22.53125 13.18359375 C22.5621875 12.21550781 22.593125 11.24742188 22.625 10.25 C22.66367188 9.26644531 22.70234375 8.28289063 22.7421875 7.26953125 C22.8362797 4.84665711 22.91922152 2.42335455 23 0 C26.3 0 29.6 0 33 0 C33.11656783 4.20809884 33.18737611 8.41577996 33.25 12.625 C33.30027344 14.40970703 33.30027344 14.40970703 33.3515625 16.23046875 C33.44308417 24.42165846 32.86276264 27.93980727 27.2421875 33.84765625 C23.94317499 35.54314177 20.74754121 35.47405776 17.125 35.4375 C16.08279297 35.4674707 16.08279297 35.4674707 15.01953125 35.49804688 C9.84296219 35.49317252 6.76328983 34.56031355 3 31 C-0.55915249 24.55616751 -0.37243198 17.60242878 -0.1875 10.4375 C-0.17396484 9.42880859 -0.16042969 8.42011719 -0.14648438 7.38085938 C-0.11150065 4.92033712 -0.05770855 2.46009418 0 0 Z " fill="#0C0932" transform="translate(45,0)"/>
<path d="M0 0 C10.23 0 20.46 0 31 0 C31 2.97 31 5.94 31 9 C27.7 9 24.4 9 21 9 C21 17.58 21 26.16 21 35 C17.37 35 13.74 35 10 35 C10 26.42 10 17.84 10 9 C6.7 9 3.4 9 0 9 C0 6.03 0 3.06 0 0 Z " fill="#0B0931" transform="translate(80,0)"/>
</svg>
